<svg xmlns="http://www.w3.org/2000/svg" width="71" height="16" viewBox="0 0 71 16"><title>  acme.</title><desc>  Created with Sketch.</desc><g fill="none"><g fill="#74C1FA"><path d="M5.7 5.5L8.4 5.3C8.4 4.8 8.2 4.4 7.9 4.2 7.6 3.9 7.1 3.8 6.3 3.8 5.6 3.8 4.7 3.8 3.7 4 2.8 4.2 1.9 4.4 1.1 4.7L1.1 0.9C1.9 0.5 2.9 0.3 3.8 0.2 4.8 0.1 5.6 0 6.3 0 7.5 0 8.5 0.1 9.3 0.4 10.1 0.7 10.7 1 11.1 1.5 11.6 2 11.9 2.6 12.1 3.2 12.2 3.9 12.3 4.7 12.3 5.5L12.3 15.5 9.5 15.5 9.3 15.1C8.8 15.3 8.2 15.6 7.5 15.7 6.8 15.9 6.2 16 5.7 16 4.6 16 3.7 15.8 3 15.5 2.3 15.2 1.7 14.9 1.2 14.4 0.8 13.9 0.5 13.3 0.3 12.6 0.1 12 0 11.3 0 10.6 0 10 0.1 9.3 0.3 8.8 0.5 8.2 0.8 7.6 1.3 7.2 1.7 6.7 2.3 6.3 3 6 3.8 5.7 4.6 5.6 5.7 5.5ZM8.4 8.8L5.8 9C5.1 9.1 4.6 9.2 4.4 9.6 4.1 9.9 4 10.2 4 10.6 4 10.8 4 11 4.1 11.2 4.1 11.4 4.2 11.5 4.3 11.7 4.4 11.9 4.6 12 4.8 12.1 5.1 12.2 5.4 12.2 5.7 12.2 6.2 12.2 6.6 12.2 7.1 12 7.7 11.8 8.1 11.7 8.4 11.5L8.4 8.8ZM18.5 8C18.5 7.4 18.5 6.9 18.6 6.4 18.7 5.9 18.8 5.4 19 5 19.2 4.6 19.5 4.3 19.8 4.1 20.2 3.9 20.7 3.8 21.2 3.8 22.1 3.8 22.9 3.8 23.7 4 24.5 4.2 25.3 4.4 26.2 4.7L26.2 0.9C25.3 0.5 24.5 0.3 23.6 0.2 22.7 0.1 21.9 0 21.2 0 20 0 18.9 0.2 18 0.6 17.1 1 16.4 1.5 15.9 2.2 15.4 2.9 15 3.8 14.8 4.8 14.6 5.7 14.5 6.8 14.5 8 14.5 9.2 14.6 10.3 14.8 11.2 15 12.2 15.4 13.1 15.9 13.8 16.4 14.5 17.1 15 18 15.4 18.9 15.8 20 16 21.2 16 21.9 16 22.7 15.9 23.6 15.8 24.5 15.7 25.3 15.5 26.2 15.1L26.2 11.3C25.3 11.6 24.5 11.8 23.7 12 22.9 12.2 22.1 12.2 21.2 12.2 20.7 12.2 20.2 12.1 19.8 11.9 19.5 11.7 19.2 11.4 19 11 18.8 10.6 18.7 10.1 18.6 9.6 18.5 9.1 18.5 8.6 18.5 8ZM35.2 0C34.6 0 34 0.1 33.4 0.3 32.7 0.5 32.1 0.7 31.5 1L31.3 0.5 28.5 0.5 28.5 15.5 32.5 15.5 32.5 4.4C32.8 4.2 33.2 4.1 33.6 4 34 3.8 34.6 3.8 35.2 3.8 35.7 3.8 36.1 3.9 36.4 4.2 36.7 4.4 36.9 4.8 36.9 5.4L36.9 15.5 40.9 15.5 40.9 4.4C41.1 4.3 41.5 4.1 41.9 4 42.3 3.8 42.9 3.8 43.6 3.8 44.1 3.8 44.5 3.9 44.8 4.2 45.1 4.4 45.3 4.8 45.3 5.4L45.3 15.5 49.3 15.5 49.3 5.2C49.3 3.6 48.8 2.4 48 1.4 47.1 0.5 45.6 0 43.6 0 42.9 0 42.2 0.1 41.4 0.4 40.7 0.6 40 0.9 39.3 1.3 38.9 0.9 38.4 0.6 37.8 0.4 37.1 0.1 36.3 0 35.2 0ZM64.3 9.9L55.6 9.9C55.6 10.5 55.9 11.1 56.3 11.5 56.7 12 57.3 12.2 58.2 12.2 59.1 12.2 60 12.2 60.9 12 61.8 11.8 62.7 11.5 63.6 11.1L63.6 15C63.2 15.2 62.8 15.4 62.3 15.5 61.8 15.6 61.3 15.7 60.8 15.8 60.3 15.9 59.9 15.9 59.4 16 59 16 58.6 16 58.2 16 56.9 16 55.9 15.8 55 15.4 54.1 15 53.4 14.5 52.9 13.8 52.4 13.1 52 12.2 51.8 11.2 51.5 10.3 51.4 9.2 51.4 8 51.4 6.8 51.5 5.7 51.8 4.8 52 3.8 52.4 2.9 52.9 2.2 53.4 1.5 54.1 1 55 0.6 55.9 0.2 56.9 0 58.2 0 59.6 0 60.7 0.2 61.5 0.7 62.3 1.1 62.9 1.7 63.3 2.4 63.7 3.2 64 4 64.2 5 64.3 5.9 64.3 6.9 64.3 8L64.3 9.9ZM58.2 3.8C57.3 3.8 56.7 4 56.3 4.5 55.9 5 55.7 5.6 55.6 6.3L60.3 6.3C60.2 5.9 60.2 5.6 60.1 5.3 60.1 5 60 4.8 59.8 4.5 59.7 4.3 59.5 4.1 59.2 4 58.9 3.8 58.6 3.8 58.2 3.8ZM65.5 13.6C65.5 14.2 65.8 14.8 66.2 15.3 66.7 15.8 67.3 16 68 16 68.7 16 69.2 15.8 69.7 15.3 70.2 14.8 70.4 14.2 70.4 13.6 70.4 12.9 70.2 12.3 69.7 11.8 69.2 11.3 68.7 11.1 68 11.1 67.3 11.1 66.7 11.3 66.2 11.8 65.8 12.3 65.5 12.9 65.5 13.6Z"/></g></g></svg>

