<svg width="14px" height="13px" viewBox="0 0 14 13" version="1.1" xmlns="http://www.w3.org/2000/svg" xmlns:xlink="http://www.w3.org/1999/xlink">
    <g id="Page-1" stroke="none" stroke-width="1" fill="none" fill-rule="evenodd">
        <g id="Docs---Mobile---Alt-1" transform="translate(-314.000000, -25.000000)" fill="#61666A">
            <g id="bars" transform="translate(309.000000, 19.000000)">
                <g id="close" transform="translate(12.000000, 12.500000) rotate(-315.000000) translate(-12.000000, -12.500000) translate(4.000000, 4.000000)">
                    <path d="M0.571428571,9.57142857 L15.4285714,9.57142857 C15.7441786,9.57142857 16,9.31560714 16,9 L16,7.57142857 C16,7.25582143 15.7441786,7 15.4285714,7 L0.571428571,7 C0.255821429,7 0,7.25582143 0,7.57142857 L0,9 C0,9.31560714 0.255821429,9.57142857 0.571428571,9.57142857 Z" id="Path"></path>
                    <path d="M0.571428571,9.57142857 L15.4285714,9.57142857 C15.7441786,9.57142857 16,9.31560714 16,9 L16,7.57142857 C16,7.25582143 15.7441786,7 15.4285714,7 L0.571428571,7 C0.255821429,7 0,7.25582143 0,7.57142857 L0,9 C0,9.31560714 0.255821429,9.57142857 0.571428571,9.57142857 Z" id="Path" transform="translate(8.000000, 8.285714) rotate(-90.000000) translate(-8.000000, -8.285714) "></path>
                </g>
            </g>
        </g>
    </g>
</svg>
