<svg width="14px" height="16px" viewBox="0 0 14 16" version="1.1" xmlns="http://www.w3.org/2000/svg" xmlns:xlink="http://www.w3.org/1999/xlink">
    <!-- Generator: Sketch 45.2 (43514) - http://www.bohemiancoding.com/sketch -->
    <title>bitbucket</title>
    <desc>Created with Sketch.</desc>
    <defs></defs>
    <g id="Page-1" stroke="none" stroke-width="1" fill="none" fill-rule="evenodd">
        <g id="Docs---Desktop" transform="translate(-1383.000000, -23.000000)" fill="#61666A">
            <g id="Header">
                <g id="Github-integration" transform="translate(1358.000000, 23.000000)">
                    <path d="M33.1013644,7.63141804 C33.210708,8.45638057 32.1967949,9.10456542 31.4910319,8.68226317 C30.6958059,8.33852878 30.6958059,7.09126401 31.4711512,6.73770864 C32.137153,6.33504835 33.1013644,6.86538141 33.1013644,7.63141804 Z M34.2047405,7.42517741 C34.0258146,6.0305979 32.4254224,5.10742554 31.1232399,5.68686351 C30.2981929,6.05023986 29.7415348,6.91448632 29.7812961,7.82783769 C29.8309977,9.02599756 30.9840753,10.0080958 32.1967949,9.900065 C33.4095145,9.79203419 34.3538453,8.62333728 34.2047405,7.42517741 Z M36.580478,2.1022049 C36.1431037,1.53258791 35.3975794,1.43437809 34.741518,1.32634728 C32.8826773,1.03171781 30.974135,1.02189682 29.1152943,1.34598925 C28.4989942,1.44419907 27.8031715,1.55222988 27.4154988,2.1022049 C28.0516796,2.69146385 28.9562491,2.77985269 29.7713557,2.87806251 C31.2425238,3.06466118 32.7534531,3.07448216 34.2246211,2.8878835 C35.049668,2.78967367 35.9641779,2.71110581 36.580478,2.1022049 Z M37.1470765,12.2669218 C36.8687474,13.2293781 37.0277926,14.5257478 35.9939989,15.0855438 C34.2146808,16.057821 32.0576304,16.1658518 30.0993865,15.8221174 C29.0655927,15.6355188 27.8528731,15.3114264 27.2862746,14.3489701 C27.0377665,13.4061558 26.8787213,12.4436995 26.7196761,11.4812432 L26.7793181,11.3241075 L26.9582439,11.2357186 C29.9204606,13.1704522 34.0655759,13.1704522 37.0377329,11.2357186 C37.5049282,11.3732124 37.1570168,11.9330084 37.1470765,12.2669218 Z M38.9462752,2.8289576 C38.6083042,4.97975277 38.2206315,7.12072695 37.8428992,9.26170114 C37.7335556,9.89024402 37.1172555,10.2437994 36.6003587,10.5089659 C34.741518,11.4321383 32.5745272,11.589274 30.5367607,11.3732124 C29.1550556,11.2258976 27.7435296,10.8625213 26.6202729,10.0080958 C26.0934357,9.60543553 26.0934357,8.91796675 25.9940324,8.33852878 C25.6461211,6.32522737 25.2485081,4.31192596 25,2.27898258 C25.1192839,1.39509416 26.1232567,1.01207584 26.868781,0.737088331 C27.8628134,0.373711978 28.9264282,0.206755276 29.9801026,0.108545451 C32.2266159,-0.107516164 34.5228308,-0.0289483042 36.6997619,0.599594576 C37.4751072,0.825477173 38.3100945,1.13974861 38.8369317,1.79775444 C39.0754994,2.1022049 38.9959768,2.48522321 38.9462752,2.8289576 Z" id="bitbucket"></path>
                </g>
            </g>
        </g>
    </g>
</svg>
