<svg width="16px" height="10px" viewBox="0 0 16 10" version="1.1" xmlns="http://www.w3.org/2000/svg" xmlns:xlink="http://www.w3.org/1999/xlink">
    <!-- Generator: Sketch 45.2 (43514) - http://www.bohemiancoding.com/sketch -->
    <title>watch</title>
    <desc>Created with Sketch.</desc>
    <defs></defs>
    <g id="Page-1" stroke="none" stroke-width="1" fill="none" fill-rule="evenodd">
        <g id="Docs---Desktop" transform="translate(-1358.000000, -25.000000)" fill-rule="nonzero" fill="#707071">
            <g id="Header">
                <g id="Github-integration" transform="translate(1358.000000, 23.000000)">
                    <g id="watch" transform="translate(0.000000, 2.000000)">
                        <path d="M8,1 C10.217,1 12.179,2.622 14.582,4.998 C12.037,7.509 10.345,9 8,9 C5.658,9 4.066,7.5 1.459,5.01 C1.472,4.998 1.484,4.986 1.498,4.974 C4.067,2.581 5.764,1 8,1 L8,1 Z M8,8 C9.654,8 11,6.654 11,5 C11,3.346 9.654,2 8,2 C6.346,2 5,3.346 5,5 C5,6.654 6.346,8 8,8 L8,8 Z M8,0 C5.11,0 3.11,2.13 0,5 C3.17,8.01 5.01,10 8,10 C10.97,10 12.97,8.01 16,5 C13.03,2.01 10.77,0 8,0 L8,0 Z M8,7 C6.893,7 6,6.106 6,5 C6,3.893 6.893,3 8,3 C9.106,3 10,3.893 10,5 C10,6.106 9.106,7 8,7 L8,7 Z" id="Shape"></path>
                    </g>
                </g>
            </g>
        </g>
    </g>
</svg>
