<svg width="16px" height="15px" viewBox="0 0 16 15" version="1.1" xmlns="http://www.w3.org/2000/svg" xmlns:xlink="http://www.w3.org/1999/xlink">
    <!-- Generator: Sketch 45.2 (43514) - http://www.bohemiancoding.com/sketch -->
    <title>gitlab</title>
    <desc>Created with Sketch.</desc>
    <defs></defs>
    <g id="Page-1" stroke="none" stroke-width="1" fill="none" fill-rule="evenodd">
        <g id="Docs---Desktop" transform="translate(-1383.000000, -24.000000)" fill-rule="nonzero">
            <g id="Header">
                <g id="Github-integration" transform="translate(1358.000000, 23.000000)">
                    <g id="gitlab" transform="translate(33.000000, 8.000000) rotate(-180.000000) translate(-33.000000, -8.000000) translate(25.000000, 0.000000)">
                        <g id="g44" transform="translate(0.017196, 0.025491)" fill="#878787">
                            <path d="M15.9030299,6.40350862 L15.0122448,9.19346467 L13.246836,14.7229821 C13.1560293,15.0074558 12.7605222,15.0074558 12.6696724,14.7229821 L10.9042206,9.19346467 L5.04186385,9.19346467 L3.27636894,14.7229821 C3.18556221,15.0074558 2.79005515,15.0074558 2.69920532,14.7229821 L0.933796609,9.19346467 L0.0430545445,6.40350862 C-0.0382276086,6.14903493 0.0508121199,5.87026303 0.263498983,5.7129823 L7.97302067,0.0126754383 L15.6825855,5.7129823 C15.8952723,5.87026303 15.984269,6.14903493 15.9030299,6.40350862" id="path46"></path>
                        </g>
                        <g id="g48" transform="translate(5.048820, 0.038167)" fill="#6B6B6B">
                            <polygon id="path50" points="2.94141407 0 2.94141407 0 5.87261398 9.18078924 0.0102141404 9.18078924"></polygon>
                        </g>
                        <g id="g56" transform="translate(0.922221, 0.038184)" fill="#878787">
                            <polygon id="path58" points="7.06801328 0 4.13681335 9.18074539 0.0287892249 9.18074539"></polygon>
                        </g>
                        <g id="g64" transform="translate(0.002862, 0.008417)" fill="#AAAAAA">
                            <path d="M0.948148124,9.21052609 L0.948148124,9.21052609 L0.0573629615,6.42057 C-0.0238760937,6.16609635 0.0651205372,5.88732441 0.277850498,5.73008757 L7.98737219,0.029780701 L0.948148124,9.21052609 L0.948148124,9.21052609 Z" id="path66"></path>
                        </g>
                        <g id="g72" transform="translate(0.951010, 9.218934)" fill="#6B6B6B">
                            <path d="M0,0 L4.10802415,0 L2.34257233,5.5295174 C2.2517225,5.81403493 1.85621544,5.81403493 1.76540871,5.5295174 L0,0 L0,0 Z" id="path74"></path>
                        </g>
                        <g id="g76" transform="translate(7.990234, 0.038184)" fill="#878787">
                            <polygon id="path78" points="0 0 2.93119993 9.18074539 7.03922408 9.18074539"></polygon>
                        </g>
                        <g id="g80" transform="translate(7.961440, 0.008417)" fill="#AAAAAA">
                            <path d="M7.06801328,9.21052609 L7.06801328,9.21052609 L7.95879845,6.42057 C8.04003749,6.16609635 7.95104087,5.88732441 7.73831092,5.73008757 L0.0287892249,0.029780701 L7.06801328,9.21052609 L7.06801328,9.21052609 Z" id="path82"></path>
                        </g>
                        <g id="g84" transform="translate(10.892080, 9.218934)" fill="#6B6B6B">
                            <path d="M4.13737364,0 L0.0293494942,0 L1.7948013,5.5295174 C1.88565113,5.81403493 2.28115819,5.81403493 2.37196492,5.5295174 L4.13737364,0 L4.13737364,0 Z" id="path86"></path>
                        </g>
                    </g>
                </g>
            </g>
        </g>
    </g>
</svg>
