<svg width="17px" height="16px" viewBox="0 0 17 16" version="1.1" xmlns="http://www.w3.org/2000/svg" xmlns:xlink="http://www.w3.org/1999/xlink">
    <!-- Generator: Sketch 45.2 (43514) - http://www.bohemiancoding.com/sketch -->
    <title>Github logo</title>
    <desc>Created with Sketch.</desc>
    <defs></defs>
    <g id="Page-1" stroke="none" stroke-width="1" fill="none" fill-rule="evenodd">
        <g id="Docs---Desktop" transform="translate(-1383.000000, -23.000000)" fill="#61666A">
            <g id="Header">
                <g id="Github-integration" transform="translate(1358.000000, 23.000000)">
                    <path d="M33.2017024,0 C28.6728399,0 25,3.6723364 25,8.20270944 C25,11.8267058 27.3500335,14.9008335 30.6094649,15.9854643 C31.0198521,16.0609957 31.1694043,15.8077138 31.1694043,15.5901834 C31.1694043,15.3958159 31.1623547,14.8796847 31.1583264,14.1953703 C28.8767747,14.6908562 28.395388,13.0956332 28.395388,13.0956332 C28.0222629,12.1479659 27.4844793,11.8956911 27.4844793,11.8956911 C26.7397398,11.387113 27.5408761,11.3971839 27.5408761,11.3971839 C28.3641683,11.4550913 28.797215,12.242632 28.797215,12.242632 C29.5288624,13.4959496 30.717223,13.1339024 31.1845106,12.9239251 C31.2590349,12.3941983 31.4710263,12.0326547 31.7051737,11.8277128 C29.88386,11.6207568 27.9688873,10.9168042 27.9688873,7.77369112 C27.9688873,6.87839233 28.2886369,6.1457378 28.8133283,5.57270629 C28.7287332,5.36524672 28.4472528,4.53087658 28.8938952,3.40193401 C28.8938952,3.40193401 29.5822379,3.18138234 31.1492626,4.2428502 C31.8033645,4.06056777 32.5053029,3.96993009 33.2027094,3.9664053 C33.8996124,3.96993009 34.6010473,4.06056777 35.2561563,4.2428502 C36.8221739,3.18138234 37.5095096,3.40193401 37.5095096,3.40193401 C37.957159,4.53087658 37.6756786,5.36524672 37.591587,5.57270629 C38.1172855,6.1457378 38.4345174,6.87839233 38.4345174,7.77369112 C38.4345174,10.9248609 36.5165235,11.6182391 34.6896708,11.8211668 C34.9837397,12.0744487 35.2460854,12.5749701 35.2460854,13.3403549 C35.2460854,14.4365672 35.2360146,15.3212916 35.2360146,15.5901834 C35.2360146,15.809728 35.3840561,16.0650241 35.7999823,15.9849608 C39.0568961,14.8978123 41.4049153,11.8256987 41.4049153,8.20270944 C41.4049153,3.6723364 37.7320754,0 33.2017024,0" id="Github-logo"></path>
                </g>
            </g>
        </g>
    </g>
</svg>
