<svg width="16px" height="14px" viewBox="0 0 16 14" version="1.1" xmlns="http://www.w3.org/2000/svg" xmlns:xlink="http://www.w3.org/1999/xlink">
    <!-- Generator: Sketch 45.2 (43514) - http://www.bohemiancoding.com/sketch -->
    <title>Shape</title>
    <desc>Created with Sketch.</desc>
    <defs></defs>
    <g id="Page-1" stroke="none" stroke-width="1" fill="none" fill-rule="evenodd">
        <g id="Docs---Mobile---Alt-2" transform="translate(-20.000000, -24.000000)" fill-rule="nonzero" fill="#61666A">
            <g id="bars" transform="translate(20.000000, 24.000000)">
                <path d="M0.571428571,2.57142857 L15.4285714,2.57142857 C15.7441786,2.57142857 16,2.31560714 16,2 L16,0.571428571 C16,0.255821429 15.7441786,0 15.4285714,0 L0.571428571,0 C0.255821429,0 0,0.255821429 0,0.571428571 L0,2 C0,2.31560714 0.255821429,2.57142857 0.571428571,2.57142857 Z M0.571428571,8.28571429 L15.4285714,8.28571429 C15.7441786,8.28571429 16,8.02989286 16,7.71428571 L16,6.28571429 C16,5.97010714 15.7441786,5.71428571 15.4285714,5.71428571 L0.571428571,5.71428571 C0.255821429,5.71428571 0,5.97010714 0,6.28571429 L0,7.71428571 C0,8.02989286 0.255821429,8.28571429 0.571428571,8.28571429 Z M0.571428571,14 L15.4285714,14 C15.7441786,14 16,13.7441786 16,13.4285714 L16,12 C16,11.6843929 15.7441786,11.4285714 15.4285714,11.4285714 L0.571428571,11.4285714 C0.255821429,11.4285714 0,11.6843929 0,12 L0,13.4285714 C0,13.7441786 0.255821429,14 0.571428571,14 Z" id="Shape"></path>
            </g>
        </g>
    </g>
</svg>
