<svg width="16px" height="16px" viewBox="0 0 16 16" version="1.1" xmlns="http://www.w3.org/2000/svg" xmlns:xlink="http://www.w3.org/1999/xlink">
    <!-- Generator: Sketch 45.2 (43514) - http://www.bohemiancoding.com/sketch -->
    <title>Shape</title>
    <desc>Created with Sketch.</desc>
    <defs></defs>
    <g id="Page-1" stroke="none" stroke-width="1" fill="none" fill-rule="evenodd">
        <g id="Docs---Mobile---Alt-2" transform="translate(-339.000000, -23.000000)" fill-rule="nonzero" fill="#61666A">
            <g id="Header">
                <path d="M354.782404,36.8330241 L351.666551,33.7177033 C351.525916,33.5770921 351.335277,33.4989747 351.135263,33.4989747 L350.62585,33.4989747 C351.488413,32.3959574 352.000951,31.0085929 352.000951,29.4993653 C352.000951,25.9090909 349.091363,23 345.500475,23 C341.909588,23 339,25.9090909 339,29.4993653 C339,33.0896397 341.909588,35.9987306 345.500475,35.9987306 C347.009961,35.9987306 348.397562,35.4862806 349.500768,34.6238649 L349.500768,35.1331901 C349.500768,35.3331706 349.578899,35.523777 349.719534,35.6643882 L352.835387,38.779709 C353.129158,39.0734303 353.604193,39.0734303 353.894839,38.779709 L354.779279,37.8954204 C355.073051,37.6016991 355.073051,37.1267454 354.782404,36.8330241 Z M345.500475,33.4989747 C343.290939,33.4989747 341.500183,31.7116493 341.500183,29.4993653 C341.500183,27.290206 343.287814,25.4997559 345.500475,25.4997559 C347.710012,25.4997559 349.500768,27.2870813 349.500768,29.4993653 C349.500768,31.7085246 347.713137,33.4989747 345.500475,33.4989747 Z" id="Shape"></path>
            </g>
        </g>
    </g>
</svg>
